<svg xmlns="http://www.w3.org/2000/svg" width="64" height="64" viewBox="0 0 64 64"><circle cx="32.0" cy="32.0" r="27" fill="#0066B3"/><g transform="translate(-12 14) scale(0.3)"><g transform="translate(0 0)"><circle cx="50" cy="10" r="8" fill="#FFFFFF"/><path d="M50 20 C58 20 62 26 62 32 L62 40 L56 40 L56 58 L48 58 L48 42 L44 58 L36 58 L42 34 L38 40 L34 34 C38 24 44 20 50 20 Z" fill="#FFFFFF"/></g></g><g transform="translate(16 30) scale(0.3)"><circle cx="20" cy="42" r="14" fill="none" stroke="#FFFFFF" stroke-width="5"/><circle cx="80" cy="42" r="14" fill="none" stroke="#FFFFFF" stroke-width="5"/><path d="M20 42 L44 42 L58 20 L80 42" fill="none" stroke="#FFFFFF" stroke-width="5" stroke-linejoin="round"/><path d="M44 42 L58 20 L74 20" fill="none" stroke="#FFFFFF" stroke-width="5"/></g></svg>